<?xml version="1.0" standalone="no"?>
<!DOCTYPE svg PUBLIC "-//W3C//DTD SVG 20010904//EN"
 "http://www.w3.org/TR/2001/REC-SVG-20010904/DTD/svg10.dtd">
<svg version="1.0" xmlns="http://www.w3.org/2000/svg"
 width="200.000000pt" height="200.000000pt" viewBox="0 0 200.000000 200.000000"
 preserveAspectRatio="xMidYMid meet">
<metadata>
Created by potrace 1.11, written by Peter Selinger 2001-2013
</metadata>
<g transform="translate(0.000000,200.000000) scale(0.100000,-0.100000)"
fill="#000000" stroke="none">
<path d="M904 1916 c-49 -29 -112 -66 -140 -81 -27 -15 -174 -99 -326 -187
l-278 -160 0 -488 0 -488 43 -24 c23 -13 150 -87 282 -163 473 -273 516 -297
529 -292 7 3 179 101 382 218 203 117 388 224 412 237 l42 24 0 488 0 488
-142 82 c-79 45 -159 91 -178 102 -19 11 -144 83 -276 159 -133 77 -245 139
-250 139 -5 0 -50 -24 -100 -54z m81 -442 c0 -234 -2 -427 -5 -429 -8 -5 -745
422 -744 431 3 10 738 433 744 427 2 -2 5 -196 5 -429z m435 212 c195 -113
354 -208 354 -212 -1 -5 -75 -50 -165 -102 -494 -284 -563 -323 -572 -325 -10
-2 -18 820 -9 850 3 8 9 9 20 2 10 -5 177 -101 372 -213z m388 -905 l-3 -219
-115 67 c-63 38 -231 135 -373 216 -142 82 -256 152 -255 157 2 5 170 104 373
221 l370 213 3 -218 c1 -120 1 -317 0 -437z m-1458 572 c63 -37 227 -131 363
-209 238 -137 247 -143 225 -157 -23 -15 -192 -112 -549 -317 l-189 -109 0
436 c0 410 1 435 18 428 9 -3 69 -36 132 -72z m635 -834 c0 -236 -1 -429 -3
-429 -3 0 -290 164 -556 318 -192 111 -199 116 -177 130 63 42 727 419 731
415 2 -2 5 -197 5 -434z m433 219 c193 -112 353 -207 353 -213 1 -8 -711 -424
-735 -428 -8 -2 -17 837 -8 856 2 4 11 3 20 -2 9 -5 176 -101 370 -213z"/>
</g>
</svg>
